<svg width="657.9px" height="121.3px" xmlns="http://www.w3.org/2000/svg" viewBox="-78.96251220703124 14.34007720947266 657.9250244140625 121.31984558105468" style="background: rgba(0, 0, 0, 0)" preserveAspectRatio="xMidYMid"><defs><linearGradient id="editing-gradient-gradient" x1="0" x2="1" y1="0.5" y2="0.5" gradientUnits="objectBoundingBox"><stop offset="0" stop-color="#51b3e6"></stop><stop offset="1" stop-color="#e64dde"></stop></linearGradient></defs><g><g transform="matrix(1.3,0,0,1.3,-37.1,151)"><path d="M -3.4 -37.9 L -17.4 -37.9 L -9.3 -80.2 L 4.8 -80.2 L -3.4 -37.9 Z M 52.3 -36.7 L 52.3 -36.7 L 52.3 -36.7 Q 44.6 -36.7 44.6 -42.7 L 44.6 -42.7 L 44.6 -42.7 Q 44.6 -45.3 45.7 -50.4 L 45.7 -50.4 L 45.7 -50.4 Q 46.8 -55.5 47.2 -57.5 L 47.2 -57.5 L 47.2 -57.5 Q 48.1 -62.2 48.1 -63.7 L 48.1 -63.7 L 48.1 -63.7 Q 48.1 -66.9 45.7 -66.9 L 45.7 -66.9 L 45.7 -66.9 Q 44.1 -66.9 42.5 -64.7 L 42.5 -64.7 L 42.5 -64.7 Q 41 -62.5 40.3 -58.1 L 40.3 -58.1 L 36.3 -37.9 L 23.8 -36.7 L 27.3 -54.1 L 27.3 -54.1 Q 27.9 -57 28.4 -60.2 L 28.4 -60.2 L 28.4 -60.2 Q 28.9 -63.5 28.9 -64 L 28.9 -64 L 28.9 -64 Q 28.9 -66.9 26.7 -66.9 L 26.7 -66.9 L 26.7 -66.9 Q 25.2 -66.9 23.6 -64.8 L 23.6 -64.8 L 23.6 -64.8 Q 22 -62.6 21.1 -58.1 L 21.1 -58.1 L 17.2 -37.9 L 4.6 -36.7 L 11.4 -70.6 L 21.8 -71.9 L 20.7 -65.4 L 20.7 -65.4 Q 22.4 -68.9 25.4 -70.4 L 25.4 -70.4 L 25.4 -70.4 Q 28.5 -71.9 33.3 -71.9 L 33.3 -71.9 L 33.3 -71.9 Q 36.1 -71.9 37.9 -70.5 L 37.9 -70.5 L 37.9 -70.5 Q 39.6 -69.2 40.2 -67 L 40.2 -67 L 40.2 -67 Q 41.3 -69.2 44.1 -70.6 L 44.1 -70.6 L 44.1 -70.6 Q 46.9 -71.9 50.3 -71.9 L 50.3 -71.9 L 50.3 -71.9 Q 53.7 -71.9 55.4 -71.1 L 55.4 -71.1 L 55.4 -71.1 Q 57.1 -70.4 58.1 -69.2 L 58.1 -69.2 L 58.1 -69.2 Q 59.9 -66.9 59.9 -62.8 L 59.9 -62.8 L 59.9 -62.8 Q 59.9 -58.8 58.1 -50.4 L 58.1 -50.4 L 58.1 -50.4 Q 57.2 -46.3 57.2 -44.8 L 57.2 -44.8 L 57.2 -44.8 Q 57.2 -43.3 58.1 -42.4 L 58.1 -42.4 L 58.1 -42.4 Q 59 -41.5 60.3 -41.4 L 60.3 -41.4 L 60.3 -41.4 Q 59.6 -39.2 57.4 -37.9 L 57.4 -37.9 L 57.4 -37.9 Q 55.2 -36.7 52.3 -36.7 Z M 68 -39.9 L 68 -39.9 L 68 -39.9 Q 66.5 -41.5 65.8 -44.2 L 65.8 -44.2 L 65.8 -44.2 Q 65.1 -46.8 65.1 -51.1 L 65.1 -51.1 L 65.1 -51.1 Q 65.1 -55.4 66.6 -59.3 L 66.6 -59.3 L 66.6 -59.3 Q 68.1 -63.2 70.7 -66 L 70.7 -66 L 70.7 -66 Q 76.3 -71.9 85.3 -71.9 L 85.3 -71.9 L 85.3 -71.9 Q 88.6 -71.9 91 -70.8 L 91 -70.8 L 101.9 -71.9 L 97.2 -46.9 L 97.2 -46.9 Q 97 -46.1 97 -44.7 L 97 -44.7 L 97 -44.7 Q 97 -43.3 97.9 -42.4 L 97.9 -42.4 L 97.9 -42.4 Q 98.7 -41.5 100 -41.4 L 100 -41.4 L 100 -41.4 Q 99.4 -39.2 97 -37.9 L 97 -37.9 L 97 -37.9 Q 94.7 -36.7 92.1 -36.7 L 92.1 -36.7 L 92.1 -36.7 Q 89.4 -36.7 87.7 -37.7 L 87.7 -37.7 L 87.7 -37.7 Q 85.9 -38.6 85.4 -40.3 L 85.4 -40.3 L 85.4 -40.3 Q 84.4 -38.7 82.2 -37.7 L 82.2 -37.7 L 82.2 -37.7 Q 80 -36.7 77.1 -36.7 L 77.1 -36.7 L 77.1 -36.7 Q 74.2 -36.7 71.8 -37.4 L 71.8 -37.4 L 71.8 -37.4 Q 69.5 -38.2 68 -39.9 Z M 81.5 -65.8 L 81.5 -65.8 L 81.5 -65.8 Q 80.7 -64.7 80.1 -62.7 L 80.1 -62.7 L 80.1 -62.7 Q 79.5 -60.8 78.4 -55.6 L 78.4 -55.6 L 78.4 -55.6 Q 77.3 -50.4 77.3 -46.6 L 77.3 -46.6 L 77.3 -46.6 Q 77.3 -42.9 77.9 -41.8 L 77.9 -41.8 L 77.9 -41.8 Q 78.5 -40.8 79.5 -40.8 L 79.5 -40.8 L 79.5 -40.8 Q 81.6 -40.8 83.1 -42.7 L 83.1 -42.7 L 83.1 -42.7 Q 84.6 -44.7 85.1 -48.1 L 85.1 -48.1 L 88.5 -66.9 L 88.5 -66.9 Q 87.2 -68 85.6 -68 L 85.6 -68 L 85.6 -68 Q 84.1 -68 83.1 -67.5 L 83.1 -67.5 L 83.1 -67.5 Q 82.2 -67 81.5 -65.8 Z M 109.7 -64.7 L 109.7 -64.7 L 109.7 -64.7 Q 111.8 -67.8 115.1 -69.8 L 115.1 -69.8 L 115.1 -69.8 Q 118.4 -71.9 122.5 -71.9 L 122.5 -71.9 L 122.5 -71.9 Q 126.5 -71.9 128.4 -70.6 L 128.4 -70.6 L 141 -71.9 L 136.6 -47.3 L 136.6 -47.3 Q 134.4 -34.7 129.6 -29.8 L 129.6 -29.8 L 129.6 -29.8 Q 125.1 -25.1 116.3 -25.1 L 116.3 -25.1 L 116.3 -25.1 Q 109.5 -25.1 105.7 -27.3 L 105.7 -27.3 L 105.7 -27.3 Q 101.9 -29.4 101.9 -32.9 L 101.9 -32.9 L 101.9 -32.9 Q 101.9 -35.5 103.8 -37 L 103.8 -37 L 103.8 -37 Q 105.8 -38.5 108.9 -38.5 L 108.9 -38.5 L 108.9 -38.5 Q 111.6 -38.5 113.6 -37.3 L 113.6 -37.3 L 113.6 -37.3 Q 114.8 -36.7 115.4 -35.8 L 115.4 -35.8 L 115.4 -35.8 Q 113.9 -34.5 113.9 -32.4 L 113.9 -32.4 L 113.9 -32.4 Q 113.9 -29.6 116.5 -29.6 L 116.5 -29.6 L 116.5 -29.6 Q 120.8 -29.6 123.2 -39.7 L 123.2 -39.7 L 123.2 -39.7 Q 123.9 -42.5 124.5 -45.2 L 124.5 -45.2 L 124.5 -45.2 Q 121.6 -41.7 115.1 -41.7 L 115.1 -41.7 L 115.1 -41.7 Q 110.6 -41.7 107.9 -43.9 L 107.9 -43.9 L 107.9 -43.9 Q 105.3 -46.1 105.3 -51.2 L 105.3 -51.2 L 105.3 -51.2 Q 105.3 -54.4 106.4 -58 L 106.4 -58 L 106.4 -58 Q 107.5 -61.6 109.7 -64.7 Z M 118 -51 L 118 -51 L 118 -51 Q 118 -46.6 120.2 -46.6 L 120.2 -46.6 L 120.2 -46.6 Q 121.8 -46.6 123.2 -48.3 L 123.2 -48.3 L 123.2 -48.3 Q 124.4 -49.7 124.8 -51.6 L 124.8 -51.6 L 128.1 -68.1 L 128.1 -68.1 Q 127.8 -68.2 127.5 -68.3 L 127.5 -68.3 L 127.5 -68.3 Q 126.8 -68.5 126 -68.5 L 126 -68.5 L 126 -68.5 Q 122.1 -68.5 119.8 -62.1 L 119.8 -62.1 L 119.8 -62.1 Q 118 -57.1 118 -51 Z M 169.4 -48.8 L 169.4 -48.8 L 169.4 -48.8 Q 171 -47.7 171 -45.3 L 171 -45.3 L 171 -45.3 Q 171 -42.9 169.8 -41.3 L 169.8 -41.3 L 169.8 -41.3 Q 168.5 -39.8 166.6 -38.8 L 166.6 -38.8 L 166.6 -38.8 Q 162.5 -36.7 158 -36.7 L 158 -36.7 L 158 -36.7 Q 153.6 -36.7 151 -37.6 L 151 -37.6 L 151 -37.6 Q 148.4 -38.6 146.7 -40.4 L 146.7 -40.4 L 146.7 -40.4 Q 143.3 -43.8 143.3 -50 L 143.3 -50 L 143.3 -50 Q 143.3 -59.6 148.6 -65.5 L 148.6 -65.5 L 148.6 -65.5 Q 154.2 -71.9 164 -71.9 L 164 -71.9 L 164 -71.9 Q 170.1 -71.9 173.1 -69.3 L 173.1 -69.3 L 173.1 -69.3 Q 175.3 -67.4 175.3 -64.2 L 175.3 -64.2 L 175.3 -64.2 Q 175.3 -53 155.9 -53 L 155.9 -53 L 155.9 -53 Q 155.6 -51.3 155.6 -49.9 L 155.6 -49.9 L 155.6 -49.9 Q 155.6 -47 156.9 -45.8 L 156.9 -45.8 L 156.9 -45.8 Q 158.2 -44.7 160.7 -44.7 L 160.7 -44.7 L 160.7 -44.7 Q 163.1 -44.7 165.7 -45.8 L 165.7 -45.8 L 165.7 -45.8 Q 168.3 -47 169.4 -48.8 Z M 156.3 -55.7 L 156.3 -55.7 L 156.3 -55.7 Q 160.9 -55.7 163.5 -58.6 L 163.5 -58.6 L 163.5 -58.6 Q 166.1 -61.2 166.1 -65.5 L 166.1 -65.5 L 166.1 -65.5 Q 166.1 -67 165.6 -67.8 L 165.6 -67.8 L 165.6 -67.8 Q 165 -68.6 163.9 -68.6 L 163.9 -68.6 L 163.9 -68.6 Q 162.8 -68.6 161.9 -68.2 L 161.9 -68.2 L 161.9 -68.2 Q 161 -67.8 160 -66.4 L 160 -66.4 L 160 -66.4 Q 157.7 -63.2 156.3 -55.7 Z M 196.6 -60.4 L 196.6 -60.4 L 196.6 -60.4 Q 197.5 -62.8 197.5 -64.8 L 197.5 -64.8 L 197.5 -64.8 Q 197.5 -68.6 194.5 -68.6 L 194.5 -68.6 L 194.5 -68.6 Q 192.9 -68.6 191.5 -67.2 L 191.5 -67.2 L 191.5 -67.2 Q 190.2 -65.7 190.2 -63.9 L 190.2 -63.9 L 190.2 -63.9 Q 190.2 -62.6 191.3 -61.6 L 191.3 -61.6 L 191.3 -61.6 Q 192.7 -60.2 196.5 -57.9 L 196.5 -57.9 L 196.5 -57.9 Q 200.3 -55.6 201.7 -53.7 L 201.7 -53.7 L 201.7 -53.7 Q 203.2 -51.8 203.2 -49.2 L 203.2 -49.2 L 203.2 -49.2 Q 203.2 -46.6 201.9 -44.3 L 201.9 -44.3 L 201.9 -44.3 Q 200.7 -41.9 198.4 -40.2 L 198.4 -40.2 L 198.4 -40.2 Q 193.6 -36.7 185.9 -36.7 L 185.9 -36.7 L 185.9 -36.7 Q 181.8 -36.7 178.6 -38.8 L 178.6 -38.8 L 178.6 -38.8 Q 175.4 -41 175.4 -43.4 L 175.4 -43.4 L 175.4 -43.4 Q 175.4 -45.9 177.2 -47.4 L 177.2 -47.4 L 177.2 -47.4 Q 179 -48.9 181.7 -48.9 L 181.7 -48.9 L 181.7 -48.9 Q 184.4 -48.9 186.1 -47.9 L 186.1 -47.9 L 186.1 -47.9 Q 185.2 -45.8 185.2 -44.3 L 185.2 -44.3 L 185.2 -44.3 Q 185.2 -40.1 188.8 -40.1 L 188.8 -40.1 L 188.8 -40.1 Q 190.4 -40.1 191.4 -41.1 L 191.4 -41.1 L 191.4 -41.1 Q 192.4 -42 192.4 -43.7 L 192.4 -43.7 L 192.4 -43.7 Q 192.4 -47 186.9 -50.4 L 186.9 -50.4 L 186.9 -50.4 Q 182.4 -53.4 181.4 -54.5 L 181.4 -54.5 L 181.4 -54.5 Q 179.7 -56.6 179.7 -59.1 L 179.7 -59.1 L 179.7 -59.1 Q 179.7 -61.7 180.9 -64.1 L 180.9 -64.1 L 180.9 -64.1 Q 182.1 -66.6 184.3 -68.3 L 184.3 -68.3 L 184.3 -68.3 Q 189 -71.9 197.1 -71.9 L 197.1 -71.9 L 197.1 -71.9 Q 201.3 -71.9 203.8 -70.2 L 203.8 -70.2 L 203.8 -70.2 Q 206.2 -68.5 206.2 -65.7 L 206.2 -65.7 L 206.2 -65.7 Q 206.2 -62.9 204.5 -61.3 L 204.5 -61.3 L 204.5 -61.3 Q 202.8 -59.7 199.8 -59.7 L 199.8 -59.7 L 199.8 -59.7 Q 197.7 -59.7 196.6 -60.4 Z M 247.7 -58.6 L 260.6 -59.7 L 260.6 -59.7 Q 256 -49.6 256 -37.9 L 256 -37.9 L 256 -37.9 Q 254.3 -36.7 251.8 -36.7 L 251.8 -36.7 L 251.8 -36.7 Q 249.2 -36.7 247.6 -37.8 L 247.6 -37.8 L 247.6 -37.8 Q 246 -39 245.7 -40.2 L 245.7 -40.2 L 245.7 -40.2 Q 244.1 -38.6 241.5 -37.6 L 241.5 -37.6 L 241.5 -37.6 Q 238.9 -36.7 236.2 -36.7 L 236.2 -36.7 L 236.2 -36.7 Q 233.4 -36.7 231 -37.6 L 231 -37.6 L 231 -37.6 Q 228.6 -38.5 226.8 -40.4 L 226.8 -40.4 L 226.8 -40.4 Q 222.7 -44.8 222.7 -53 L 222.7 -53 L 222.7 -53 Q 222.7 -65.8 229.5 -73.5 L 229.5 -73.5 L 229.5 -73.5 Q 236.6 -81.5 249.1 -81.5 L 249.1 -81.5 L 249.1 -81.5 Q 257.7 -81.5 260.8 -77 L 260.8 -77 L 260.8 -77 Q 261.7 -75.6 261.7 -73.9 L 261.7 -73.9 L 261.7 -73.9 Q 261.7 -72.2 261 -70.7 L 261 -70.7 L 261 -70.7 Q 260.3 -69.3 259.1 -68.2 L 259.1 -68.2 L 259.1 -68.2 Q 256.3 -65.6 253 -65.6 L 253 -65.6 L 253 -65.6 Q 251.6 -65.6 250.3 -66 L 250.3 -66 L 250.3 -66 Q 250.6 -68 250.6 -70.2 L 250.6 -70.2 L 250.6 -70.2 Q 250.6 -72.4 250.4 -73.5 L 250.4 -73.5 L 250.4 -73.5 Q 250.3 -74.5 249.9 -75.3 L 249.9 -75.3 L 249.9 -75.3 Q 249.1 -77 247.2 -77 L 247.2 -77 L 247.2 -77 Q 245.4 -77 243.4 -75.1 L 243.4 -75.1 L 243.4 -75.1 Q 241.4 -73.1 239.8 -69.9 L 239.8 -69.9 L 239.8 -69.9 Q 236.3 -62.8 236.3 -54.1 L 236.3 -54.1 L 236.3 -54.1 Q 236.3 -50.2 237.8 -47.4 L 237.8 -47.4 L 237.8 -47.4 Q 239.5 -44.3 242.4 -44.3 L 242.4 -44.3 L 242.4 -44.3 Q 243.4 -44.3 244.3 -44.8 L 244.3 -44.8 L 244.3 -44.8 Q 245.3 -45.3 245.7 -45.7 L 245.7 -45.7 L 247.7 -58.6 Z M 266.6 -39.9 L 266.6 -39.9 L 266.6 -39.9 Q 265.1 -41.5 264.4 -44.2 L 264.4 -44.2 L 264.4 -44.2 Q 263.7 -46.8 263.7 -51.1 L 263.7 -51.1 L 263.7 -51.1 Q 263.7 -55.4 265.2 -59.3 L 265.2 -59.3 L 265.2 -59.3 Q 266.7 -63.2 269.3 -66 L 269.3 -66 L 269.3 -66 Q 274.8 -71.9 283.9 -71.9 L 283.9 -71.9 L 283.9 -71.9 Q 287.2 -71.9 289.6 -70.8 L 289.6 -70.8 L 300.5 -71.9 L 295.8 -46.9 L 295.8 -46.9 Q 295.6 -46.1 295.6 -44.7 L 295.6 -44.7 L 295.6 -44.7 Q 295.6 -43.3 296.4 -42.4 L 296.4 -42.4 L 296.4 -42.4 Q 297.3 -41.5 298.6 -41.4 L 298.6 -41.4 L 298.6 -41.4 Q 297.9 -39.2 295.6 -37.9 L 295.6 -37.9 L 295.6 -37.9 Q 293.3 -36.7 290.7 -36.7 L 290.7 -36.7 L 290.7 -36.7 Q 288 -36.7 286.3 -37.7 L 286.3 -37.7 L 286.3 -37.7 Q 284.5 -38.6 284 -40.3 L 284 -40.3 L 284 -40.3 Q 283 -38.7 280.8 -37.7 L 280.8 -37.7 L 280.8 -37.7 Q 278.6 -36.7 275.7 -36.7 L 275.7 -36.7 L 275.7 -36.7 Q 272.8 -36.7 270.4 -37.4 L 270.4 -37.4 L 270.4 -37.4 Q 268.1 -38.2 266.6 -39.9 Z M 280.1 -65.8 L 280.1 -65.8 L 280.1 -65.8 Q 279.3 -64.7 278.7 -62.7 L 278.7 -62.7 L 278.7 -62.7 Q 278 -60.8 277 -55.6 L 277 -55.6 L 277 -55.6 Q 275.9 -50.4 275.9 -46.6 L 275.9 -46.6 L 275.9 -46.6 Q 275.9 -42.9 276.5 -41.8 L 276.5 -41.8 L 276.5 -41.8 Q 277.1 -40.8 278.1 -40.8 L 278.1 -40.8 L 278.1 -40.8 Q 280.2 -40.8 281.7 -42.7 L 281.7 -42.7 L 281.7 -42.7 Q 283.2 -44.7 283.7 -48.1 L 283.7 -48.1 L 287.1 -66.9 L 287.1 -66.9 Q 285.8 -68 284.2 -68 L 284.2 -68 L 284.2 -68 Q 282.7 -68 281.7 -67.5 L 281.7 -67.5 L 281.7 -67.5 Q 280.8 -67 280.1 -65.8 Z M 319.3 -41.5 L 319.3 -41.5 L 319.3 -41.5 Q 317.3 -36.7 310.9 -36.7 L 310.9 -36.7 L 310.9 -36.7 Q 307.7 -36.7 305.7 -38.9 L 305.7 -38.9 L 305.7 -38.9 Q 304 -40.8 304 -42.9 L 304 -42.9 L 304 -42.9 Q 304 -47.7 306.3 -58.2 L 306.3 -58.2 L 310.9 -82.7 L 323.9 -84 L 317.7 -51.6 L 317.7 -51.6 Q 316.6 -46.9 316.6 -45.2 L 316.6 -45.2 L 316.6 -45.2 Q 316.6 -41.6 319.3 -41.5 Z M 340 -41.5 L 340 -41.5 L 340 -41.5 Q 338 -36.7 331.7 -36.7 L 331.7 -36.7 L 331.7 -36.7 Q 328.5 -36.7 326.4 -38.9 L 326.4 -38.9 L 326.4 -38.9 Q 324.8 -40.8 324.8 -42.9 L 324.8 -42.9 L 324.8 -42.9 Q 324.8 -47.7 327 -58.2 L 327 -58.2 L 331.7 -82.7 L 344.7 -84 L 338.5 -51.6 L 338.5 -51.6 Q 337.4 -46.9 337.4 -45.2 L 337.4 -45.2 L 337.4 -45.2 Q 337.4 -41.6 340 -41.5 Z M 371.4 -48.8 L 371.4 -48.8 L 371.4 -48.8 Q 373 -47.7 373 -45.3 L 373 -45.3 L 373 -45.3 Q 373 -42.9 371.7 -41.3 L 371.7 -41.3 L 371.7 -41.3 Q 370.5 -39.8 368.5 -38.8 L 368.5 -38.8 L 368.5 -38.8 Q 364.4 -36.7 360 -36.7 L 360 -36.7 L 360 -36.7 Q 355.6 -36.7 353 -37.6 L 353 -37.6 L 353 -37.6 Q 350.4 -38.6 348.7 -40.4 L 348.7 -40.4 L 348.7 -40.4 Q 345.3 -43.8 345.3 -50 L 345.3 -50 L 345.3 -50 Q 345.3 -59.6 350.6 -65.5 L 350.6 -65.5 L 350.6 -65.5 Q 356.2 -71.9 366 -71.9 L 366 -71.9 L 366 -71.9 Q 372.1 -71.9 375.1 -69.3 L 375.1 -69.3 L 375.1 -69.3 Q 377.3 -67.4 377.3 -64.2 L 377.3 -64.2 L 377.3 -64.2 Q 377.3 -53 357.9 -53 L 357.9 -53 L 357.9 -53 Q 357.6 -51.3 357.6 -49.9 L 357.6 -49.9 L 357.6 -49.9 Q 357.6 -47 358.9 -45.8 L 358.9 -45.8 L 358.9 -45.8 Q 360.2 -44.7 362.7 -44.7 L 362.7 -44.7 L 362.7 -44.7 Q 365.1 -44.7 367.7 -45.8 L 367.7 -45.8 L 367.7 -45.8 Q 370.3 -47 371.4 -48.8 Z M 358.3 -55.7 L 358.3 -55.7 L 358.3 -55.7 Q 362.8 -55.7 365.5 -58.6 L 365.5 -58.6 L 365.5 -58.6 Q 368.1 -61.2 368.1 -65.5 L 368.1 -65.5 L 368.1 -65.5 Q 368.1 -67 367.5 -67.8 L 367.5 -67.8 L 367.5 -67.8 Q 367 -68.6 365.9 -68.6 L 365.9 -68.6 L 365.9 -68.6 Q 364.8 -68.6 363.9 -68.2 L 363.9 -68.2 L 363.9 -68.2 Q 363 -67.8 362 -66.4 L 362 -66.4 L 362 -66.4 Q 359.6 -63.2 358.3 -55.7 Z M 399.5 -55.9 L 399.5 -55.9 L 399.5 -55.9 Q 401.8 -60 401.8 -64.2 L 401.8 -64.2 L 401.8 -64.2 Q 401.8 -66.9 399.8 -66.9 L 399.8 -66.9 L 399.8 -66.9 Q 398.3 -66.9 396.7 -64.3 L 396.7 -64.3 L 396.7 -64.3 Q 395 -61.7 394.5 -58.3 L 394.5 -58.3 L 391.2 -37.9 L 377.9 -36.7 L 384.5 -70.6 L 395 -71.9 L 393.9 -65.4 L 393.9 -65.4 Q 397 -71.9 404.1 -71.9 L 404.1 -71.9 L 404.1 -71.9 Q 407.8 -71.9 409.8 -69.9 L 409.8 -69.9 L 409.8 -69.9 Q 411.8 -68 411.8 -64.1 L 411.8 -64.1 L 411.8 -64.1 Q 411.8 -60.2 409.2 -57.7 L 409.2 -57.7 L 409.2 -57.7 Q 406.6 -55.2 402.2 -55.2 L 402.2 -55.2 L 402.2 -55.2 Q 400.3 -55.2 399.5 -55.9 Z M 433.2 -45.2 L 433.2 -45.2 L 433.2 -45.2 Q 429.9 -41.7 423.8 -41.7 L 423.8 -41.7 L 423.8 -41.7 Q 416.2 -41.7 414.6 -47.3 L 414.6 -47.3 L 414.6 -47.3 Q 414 -49 414 -50.8 L 414 -50.8 L 414 -50.8 Q 414 -52.7 414.4 -54.6 L 414.4 -54.6 L 417.4 -70.6 L 430.4 -71.9 L 426.9 -53.2 L 426.9 -53.2 Q 426.8 -52.4 426.6 -51.5 L 426.6 -51.5 L 426.6 -51.5 Q 426.4 -50.6 426.4 -49.7 L 426.4 -49.7 L 426.4 -49.7 Q 426.4 -48.8 426.7 -48.2 L 426.7 -48.2 L 426.7 -48.2 Q 427 -47.5 427.5 -47.2 L 427.5 -47.2 L 427.5 -47.2 Q 428.3 -46.6 429.6 -46.6 L 429.6 -46.6 L 429.6 -46.6 Q 431 -46.6 432.2 -48.3 L 432.2 -48.3 L 432.2 -48.3 Q 433.4 -50 433.9 -52.9 L 433.9 -52.9 L 437.5 -70.6 L 450.1 -71.9 L 445.3 -46.7 L 445.3 -46.7 Q 442.9 -34.4 438 -29.6 L 438 -29.6 L 438 -29.6 Q 435.5 -27.1 432.3 -26.1 L 432.3 -26.1 L 432.3 -26.1 Q 429.1 -25.1 424.9 -25.1 L 424.9 -25.1 L 424.9 -25.1 Q 418.2 -25.1 414.4 -27.2 L 414.4 -27.2 L 414.4 -27.2 Q 410.5 -29.3 410.5 -32.8 L 410.5 -32.8 L 410.5 -32.8 Q 410.5 -35.4 412.5 -37 L 412.5 -37 L 412.5 -37 Q 414.5 -38.5 417.6 -38.5 L 417.6 -38.5 L 417.6 -38.5 Q 420.3 -38.5 422.3 -37.3 L 422.3 -37.3 L 422.3 -37.3 Q 423.5 -36.6 424.1 -35.7 L 424.1 -35.7 L 424.1 -35.7 Q 422.6 -34.4 422.6 -32.3 L 422.6 -32.3 L 422.6 -32.3 Q 422.6 -29.5 425.2 -29.5 L 425.2 -29.5 L 425.2 -29.5 Q 429.4 -29.5 431.8 -39.2 L 431.8 -39.2 L 431.8 -39.2 Q 432.5 -42.1 433.2 -45.2 Z" fill="url(#editing-gradient-gradient)"></path></g></g><style>text {
  font-size: 64px;
  font-family: Arial Black;
  dominant-baseline: central;
  text-anchor: middle;
}</style></svg>